<svg id="visual" viewBox="0 0 900 450" width="900" height="450" xmlns="http://www.w3.org/2000/svg" xmlns:xlink="http://www.w3.org/1999/xlink" version="1.1"><rect x="0" y="0" width="900" height="450" fill="#000000"></rect><defs><linearGradient id="grad1_0" x1="50%" y1="0%" x2="100%" y2="100%"><stop offset="10%" stop-color="#34e660" stop-opacity="1"></stop><stop offset="90%" stop-color="#34e660" stop-opacity="1"></stop></linearGradient></defs><defs><linearGradient id="grad1_1" x1="50%" y1="0%" x2="100%" y2="100%"><stop offset="10%" stop-color="#34e660" stop-opacity="1"></stop><stop offset="90%" stop-color="#00ac29" stop-opacity="1"></stop></linearGradient></defs><defs><linearGradient id="grad1_2" x1="50%" y1="0%" x2="100%" y2="100%"><stop offset="10%" stop-color="#007500" stop-opacity="1"></stop><stop offset="90%" stop-color="#00ac29" stop-opacity="1"></stop></linearGradient></defs><defs><linearGradient id="grad1_3" x1="50%" y1="0%" x2="100%" y2="100%"><stop offset="10%" stop-color="#007500" stop-opacity="1"></stop><stop offset="90%" stop-color="#004100" stop-opacity="1"></stop></linearGradient></defs><defs><linearGradient id="grad1_4" x1="50%" y1="0%" x2="100%" y2="100%"><stop offset="10%" stop-color="#000000" stop-opacity="1"></stop><stop offset="90%" stop-color="#004100" stop-opacity="1"></stop></linearGradient></defs><defs><linearGradient id="grad2_0" x1="0%" y1="0%" x2="50%" y2="100%"><stop offset="10%" stop-color="#34e660" stop-opacity="1"></stop><stop offset="90%" stop-color="#34e660" stop-opacity="1"></stop></linearGradient></defs><defs><linearGradient id="grad2_1" x1="0%" y1="0%" x2="50%" y2="100%"><stop offset="10%" stop-color="#00ac29" stop-opacity="1"></stop><stop offset="90%" stop-color="#34e660" stop-opacity="1"></stop></linearGradient></defs><defs><linearGradient id="grad2_2" x1="0%" y1="0%" x2="50%" y2="100%"><stop offset="10%" stop-color="#00ac29" stop-opacity="1"></stop><stop offset="90%" stop-color="#007500" stop-opacity="1"></stop></linearGradient></defs><defs><linearGradient id="grad2_3" x1="0%" y1="0%" x2="50%" y2="100%"><stop offset="10%" stop-color="#004100" stop-opacity="1"></stop><stop offset="90%" stop-color="#007500" stop-opacity="1"></stop></linearGradient></defs><defs><linearGradient id="grad2_4" x1="0%" y1="0%" x2="50%" y2="100%"><stop offset="10%" stop-color="#004100" stop-opacity="1"></stop><stop offset="90%" stop-color="#000000" stop-opacity="1"></stop></linearGradient></defs><g transform="translate(900, 0)"><path d="M0 247.5C-33.8 246 -67.6 244.5 -94.7 228.7C-121.9 212.8 -142.4 182.5 -154.9 154.9C-167.3 127.2 -171.6 102.3 -185.7 76.9C-199.8 51.6 -223.6 25.8 -247.5 0L0 0Z" fill="#002d00"></path><path d="M0 198C-27 196.8 -54 195.6 -75.8 182.9C-97.5 170.2 -113.9 146 -123.9 123.9C-133.8 101.8 -137.3 81.8 -148.6 61.5C-159.8 41.2 -178.9 20.6 -198 0L0 0Z" fill="#005a00"></path><path d="M0 148.5C-20.3 147.6 -40.5 146.7 -56.8 137.2C-73.1 127.7 -85.5 109.5 -92.9 92.9C-100.4 76.3 -103 61.4 -111.4 46.2C-119.9 30.9 -134.2 15.5 -148.5 0L0 0Z" fill="#009004"></path><path d="M0 99C-13.5 98.4 -27 97.8 -37.9 91.5C-48.8 85.1 -57 73 -61.9 61.9C-66.9 50.9 -68.6 40.9 -74.3 30.8C-79.9 20.6 -89.5 10.3 -99 0L0 0Z" fill="#00c945"></path><path d="M0 49.5C-6.8 49.2 -13.5 48.9 -18.9 45.7C-24.4 42.6 -28.5 36.5 -31 31C-33.5 25.4 -34.3 20.5 -37.1 15.4C-40 10.3 -44.7 5.2 -49.5 0L0 0Z" fill="#34e660"></path></g><g transform="translate(0, 450)"><path d="M0 -247.5C33.1 -245 66.3 -242.6 94.7 -228.7C123.2 -214.7 147 -189.3 163.3 -163.3C179.7 -137.3 188.6 -110.7 201.4 -83.4C214.2 -56.1 230.8 -28.1 247.5 0L0 0Z" fill="#002d00"></path><path d="M0 -198C26.5 -196 53 -194.1 75.8 -182.9C98.5 -171.8 117.6 -151.5 130.7 -130.7C143.8 -109.9 150.9 -88.6 161.1 -66.7C171.4 -44.9 184.7 -22.4 198 0L0 0Z" fill="#005a00"></path><path d="M0 -148.5C19.9 -147 39.8 -145.6 56.8 -137.2C73.9 -128.8 88.2 -113.6 98 -98C107.8 -82.4 113.2 -66.4 120.8 -50.1C128.5 -33.7 138.5 -16.8 148.5 0L0 0Z" fill="#009004"></path><path d="M0 -99C13.3 -98 26.5 -97 37.9 -91.5C49.3 -85.9 58.8 -75.7 65.3 -65.3C71.9 -54.9 75.4 -44.3 80.6 -33.4C85.7 -22.4 92.3 -11.2 99 0L0 0Z" fill="#00c945"></path><path d="M0 -49.5C6.6 -49 13.3 -48.5 18.9 -45.7C24.6 -42.9 29.4 -37.9 32.7 -32.7C35.9 -27.5 37.7 -22.1 40.3 -16.7C42.8 -11.2 46.2 -5.6 49.5 0L0 0Z" fill="#34e660"></path></g></svg>